Coordinates
version=1
nRows=17
nColumns=24
inDegrees=yes

Units are S.I. units (second, meters, Newtons, ...)
Angles are in degrees.

endheader
time	pelvis_tilt	pelvis_list	pelvis_rotation	pelvis_tx	pelvis_ty	pelvis_tz	hip_flexion_r	hip_adduction_r	hip_rotation_r	knee_angle_r	ankle_angle_r	subtalar_angle_r	mtp_angle_r	hip_flexion_l	hip_adduction_l	hip_rotation_l	knee_angle_l	ankle_angle_l	subtalar_angle_l	mtp_angle_l	lumbar_extension	lumbar_bending	lumbar_rotation
      0.46100000	      1.19210401	      4.34148323	      1.67204951	     -0.76058393	      1.00683106	      0.25739825	     21.00604747	     -2.42117309	     -7.07042225	     -6.36281945	      4.99422987	     -7.87135774	      9.94109133	    -16.56078933	      7.85835252	      6.85819016	     -4.62791104	      9.45215796	    -13.88990258	      2.19472921	     -5.78591704	     -5.91413203	     -3.24991971
      0.46516667	      1.24064922	      4.34177976	      1.71177313	     -0.75460172	      1.00640138	      0.25749928	     20.88842541	     -2.35315750	     -6.89418846	     -6.51378341	      5.04751982	     -7.87275336	      9.95645826	    -16.67784439	      7.82629074	      6.76487680	     -5.22969583	      9.59867482	    -13.54604524	      2.25240590	     -5.78348465	     -5.88247153	     -3.30895340
      0.46933333	      1.27703838	      4.33611780	      1.74046578	     -0.74857922	      1.00598415	      0.25762803	     20.77042342	     -2.27073956	     -6.63469442	     -6.70052979	      5.01371648	     -8.01586567	      9.98794904	    -16.75575455	      7.79135169	      6.65741187	     -5.88742930	      9.72408614	    -13.22168891	      2.33588154	     -5.75791249	     -5.83957101	     -3.35216591
      0.47350000	      1.32021383	      4.32718208	      1.76528920	     -0.74251512	      1.00561295	      0.25775852	     20.63900041	     -2.18562484	     -6.35681743	     -6.93741343	      4.94650488	     -8.17176077	     10.03765966	    -16.81456181	      7.75154011	      6.51128750	     -6.59591728	      9.83813112	    -12.84821425	      2.44927136	     -5.73486862	     -5.79092672	     -3.38912519
      0.47766667	      1.36398612	      4.31567449	      1.78300671	     -0.73642427	      1.00527278	      0.25790287	     20.50339239	     -2.09585872	     -6.04817505	     -7.22070843	      4.83360685	     -8.36175074	     10.10498938	    -16.84728487	      7.70914344	      6.33709718	     -7.35403722	      9.92245927	    -12.45236485	      2.59817403	     -5.70930283	     -5.73863099	     -3.41120384
      0.48183333	      1.40822363	      4.32382872	      1.78379718	     -0.73033957	      1.00495538	      0.25806092	     20.38723960	     -2.02572018	     -5.71586087	     -7.58792962	      4.70813095	     -8.53541641	     10.16235425	    -16.86155851	      7.69601890	      6.20525432	     -8.14473326	      9.99361721	    -12.12049290	      2.72759285	     -5.69411995	     -5.71225585	     -3.42788369
      0.48600000	      1.51506890	      4.28996492	      1.80559220	     -0.72417593	      1.00477093	      0.25820389	     20.16763750	     -1.92052826	     -5.46352603	     -7.93479858	      4.55581965	     -8.67305010	     10.64678890	    -16.87966098	      7.61037643	      5.85772378	     -9.05872419	     10.05998136	    -11.45930392	      3.82438572	     -5.73236373	     -5.62034134	     -3.37443040
      0.49016667	      1.50721882	      4.27504888	      1.81113452	     -0.71798581	      1.00447770	      0.25839298	     20.05743733	     -1.82127897	     -5.05782263	     -8.27440700	      4.22412598	     -9.02312262	     10.76668964	    -16.75402490	      7.56247609	      5.60314725	    -10.00688258	     10.04774400	    -11.03484129	      4.15319135	     -5.61892952	     -5.56535958	     -3.41712502
      0.49433333	      1.54110128	      4.26057237	      1.81169757	     -0.71179943	      1.00424629	      0.25856915	     19.93367375	     -1.73223138	     -4.72976798	     -8.71487134	      3.97754003	     -9.27916863	     10.87219498	    -16.63531631	      7.50913642	      5.29563811	    -11.02615487	     10.01496684	    -10.51406460	      4.46549694	     -5.56279217	     -5.49543812	     -3.40442793
      0.49850000	      1.62086256	      4.24806023	      1.81534844	     -0.70562482	      1.00413205	      0.25876711	     19.73374260	     -1.64568655	     -4.39360082	     -9.11895274	      3.66889605	     -9.50121763	     11.08798426	    -16.51642258	      7.44323587	      4.92623209	    -12.13395205	      9.99303523	     -9.87381914	      5.16228408	     -5.57522755	     -5.45077686	     -3.36918542
      0.50266667	      1.59392767	      4.25203295	      1.81249464	     -0.69941784	      1.00388150	      0.25897061	     19.67989071	     -1.57969339	     -4.04721842	     -9.61358496	      3.43211066	     -9.78423985	     11.17273341	    -16.25000148	      7.40576791	      4.59348831	    -13.29660739	      9.83516874	     -9.39844980	      5.47979925	     -5.42768608	     -5.41250590	     -3.35351039
      0.50683333	      1.67538265	      4.22348479	      1.80812889	     -0.69323475	      1.00381851	      0.25918357	     19.49678223	     -1.48343310	     -3.75643600	    -10.08991684	      3.06248757	    -10.08313585	     12.74520229	    -16.05375165	      7.30946060	      4.15086220	    -14.52407547	      9.60126474	     -8.84765810	     12.18752645	     -5.44126926	     -5.32868296	     -3.31656879
      0.51100000	      1.69550651	      4.20642152	      1.80462031	     -0.68704806	      1.00369209	      0.25939071	     19.39735643	     -1.40793158	     -3.49720450	    -10.62083441	      2.78723291	    -10.27164337	     12.72386007	    -15.73706796	      7.22458078	      3.70133103	    -15.86806660	      9.43344182	     -8.17133155	     12.28105906	     -5.36637315	     -5.25389192	     -3.27093173
      0.51516667	      1.72729665	      4.18747785	      1.80198046	     -0.68089206	      1.00361917	      0.25962238	     19.28261976	     -1.33172226	     -3.23773155	    -11.15327723	      2.49081425	    -10.50111908	     12.70582698	    -15.38250857	      7.12542998	      3.22566158	    -17.28865001	      9.20220913	     -7.49800326	     12.45631877	     -5.31304176	     -5.18565802	     -3.22345412
      0.51933333	      1.74805695	      4.18012996	      1.79384746	     -0.67475658	      1.00355302	      0.25987487	     19.18598695	     -1.27086413	     -2.98854276	    -11.70392738	      2.23158449	    -10.68588307	     12.69264805	    -14.97589026	      7.02992439	      2.73641869	    -18.77133832	      8.87202276	     -6.83822523	     12.64923941	     -5.24137121	     -5.14906032	     -3.17619972
      0.52350000	      1.78196089	      4.15035557	      1.79402856	     -0.66865098	      1.00352586	      0.26012243	     19.07961984	     -1.19462038	     -2.78997522	    -12.27084062	      1.98197600	    -10.86851359	     12.67684423	    -14.52595122	      6.89266696	      2.21051500	    -20.34894724	      8.51906538	     -6.13979394	     12.89815551	     -5.19589101	     -5.06685216	     -3.12107839
      0.52766667	      1.80650669	      4.11627564	      1.79510752	     -0.66256956	      1.00351701	      0.26038193	     18.98786828	     -1.11851385	     -2.61271924	    -12.85340680	      1.77138923	    -11.03321961	     12.65702103	    -14.02400657	      6.73989153	      1.68478963	    -21.98823383	      8.08744792	     -5.47743406	     13.19000070	     -5.14101847	     -4.98421062	     -3.05979104
